<mxfile host="app.diagrams.net" modified="2024-05-07T22:35:40.933Z" agent="Mozilla/5.0 (Windows NT 10.0; Win64; x64) AppleWebKit/537.36 (KHTML, like Gecko) Chrome/121.0.0.0 Safari/537.36 OPR/107.0.0.0" etag="03KAFwBMpfRdKasXzvsi" version="24.3.1" type="device">
  <diagram name="Página-1" id="nt1GerH6rE409jmYYdWH">
    <mxGraphModel dx="1393" dy="797" grid="1" gridSize="10" guides="1" tooltips="1" connect="1" arrows="1" fold="1" page="1" pageScale="1" pageWidth="827" pageHeight="1169" math="0" shadow="0">
      <root>
        <mxCell id="0" />
        <mxCell id="1" parent="0" />
        <mxCell id="8qLHjYqZTRBu9Aw2idgj-2" value="" style="swimlane;startSize=0;" vertex="1" parent="1">
          <mxGeometry x="230" y="280" width="360" height="280" as="geometry" />
        </mxCell>
        <mxCell id="8qLHjYqZTRBu9Aw2idgj-12" value="Terminal" style="text;html=1;align=center;verticalAlign=middle;whiteSpace=wrap;rounded=0;" vertex="1" parent="8qLHjYqZTRBu9Aw2idgj-2">
          <mxGeometry x="300" width="60" height="30" as="geometry" />
        </mxCell>
        <mxCell id="8qLHjYqZTRBu9Aw2idgj-16" value="" style="endArrow=none;html=1;rounded=0;entryX=0.5;entryY=0;entryDx=0;entryDy=0;exitX=0.5;exitY=1;exitDx=0;exitDy=0;" edge="1" parent="8qLHjYqZTRBu9Aw2idgj-2">
          <mxGeometry width="50" height="50" relative="1" as="geometry">
            <mxPoint x="260" y="120" as="sourcePoint" />
            <mxPoint x="260" y="160" as="targetPoint" />
          </mxGeometry>
        </mxCell>
        <mxCell id="8qLHjYqZTRBu9Aw2idgj-17" value="Pega su key en authorized_keys" style="ellipse;whiteSpace=wrap;html=1;" vertex="1" parent="8qLHjYqZTRBu9Aw2idgj-2">
          <mxGeometry x="40" y="160" width="120" height="80" as="geometry" />
        </mxCell>
        <mxCell id="8qLHjYqZTRBu9Aw2idgj-18" value="" style="endArrow=none;html=1;rounded=0;entryX=1;entryY=0.5;entryDx=0;entryDy=0;exitX=0;exitY=0.5;exitDx=0;exitDy=0;" edge="1" parent="8qLHjYqZTRBu9Aw2idgj-2" source="8qLHjYqZTRBu9Aw2idgj-32" target="8qLHjYqZTRBu9Aw2idgj-17">
          <mxGeometry width="50" height="50" relative="1" as="geometry">
            <mxPoint x="260" y="240" as="sourcePoint" />
            <mxPoint x="190" y="270" as="targetPoint" />
          </mxGeometry>
        </mxCell>
        <mxCell id="8qLHjYqZTRBu9Aw2idgj-19" value="Genera llave ssh&lt;div&gt;(ssh-keygen)&lt;/div&gt;" style="ellipse;whiteSpace=wrap;html=1;" vertex="1" parent="8qLHjYqZTRBu9Aw2idgj-2">
          <mxGeometry x="40" y="40" width="120" height="80" as="geometry" />
        </mxCell>
        <mxCell id="8qLHjYqZTRBu9Aw2idgj-25" value="" style="endArrow=none;html=1;rounded=0;entryX=0;entryY=0.5;entryDx=0;entryDy=0;exitX=1;exitY=0.5;exitDx=0;exitDy=0;" edge="1" parent="8qLHjYqZTRBu9Aw2idgj-2">
          <mxGeometry width="50" height="50" relative="1" as="geometry">
            <mxPoint x="160" y="80" as="sourcePoint" />
            <mxPoint x="200" y="80" as="targetPoint" />
          </mxGeometry>
        </mxCell>
        <mxCell id="8qLHjYqZTRBu9Aw2idgj-31" value="Entra al servidor" style="ellipse;whiteSpace=wrap;html=1;" vertex="1" parent="8qLHjYqZTRBu9Aw2idgj-2">
          <mxGeometry x="200" y="40" width="120" height="80" as="geometry" />
        </mxCell>
        <mxCell id="8qLHjYqZTRBu9Aw2idgj-32" value="&lt;div&gt;Pone la contraseña&lt;/div&gt;&lt;div&gt;del servidor&lt;/div&gt;" style="ellipse;whiteSpace=wrap;html=1;" vertex="1" parent="8qLHjYqZTRBu9Aw2idgj-2">
          <mxGeometry x="200" y="160" width="120" height="80" as="geometry" />
        </mxCell>
        <mxCell id="8qLHjYqZTRBu9Aw2idgj-34" value="&amp;lt;include&amp;gt;" style="text;html=1;align=center;verticalAlign=middle;whiteSpace=wrap;rounded=0;" vertex="1" parent="8qLHjYqZTRBu9Aw2idgj-2">
          <mxGeometry x="150" y="30" width="60" height="30" as="geometry" />
        </mxCell>
        <mxCell id="8qLHjYqZTRBu9Aw2idgj-35" value="&amp;lt;include&amp;gt;" style="text;html=1;align=center;verticalAlign=middle;whiteSpace=wrap;rounded=0;" vertex="1" parent="8qLHjYqZTRBu9Aw2idgj-2">
          <mxGeometry x="270" y="125" width="60" height="30" as="geometry" />
        </mxCell>
        <mxCell id="8qLHjYqZTRBu9Aw2idgj-36" value="&amp;lt;include&amp;gt;" style="text;html=1;align=center;verticalAlign=middle;whiteSpace=wrap;rounded=0;" vertex="1" parent="8qLHjYqZTRBu9Aw2idgj-2">
          <mxGeometry x="150" y="230" width="60" height="30" as="geometry" />
        </mxCell>
        <mxCell id="8qLHjYqZTRBu9Aw2idgj-6" value="Usuario" style="shape=umlActor;verticalLabelPosition=bottom;verticalAlign=top;html=1;outlineConnect=0;" vertex="1" parent="1">
          <mxGeometry x="160" y="330" width="30" height="60" as="geometry" />
        </mxCell>
        <mxCell id="8qLHjYqZTRBu9Aw2idgj-10" value="" style="endArrow=none;html=1;rounded=0;entryX=0;entryY=0.5;entryDx=0;entryDy=0;" edge="1" parent="1" source="8qLHjYqZTRBu9Aw2idgj-6">
          <mxGeometry width="50" height="50" relative="1" as="geometry">
            <mxPoint x="340" y="540" as="sourcePoint" />
            <mxPoint x="270" y="360" as="targetPoint" />
          </mxGeometry>
        </mxCell>
      </root>
    </mxGraphModel>
  </diagram>
</mxfile>
